<svg width="420" height="54" viewBox="0 0 420 54" fill="none" xmlns="http://www.w3.org/2000/svg">
<g clip-path="url(#clip0_16_17)">
<path d="M37.6858 8.68446C35.3172 6.32574 32.4817 4.46736 29.2514 3.10932C26.0571 1.75129 22.6115 1.07227 19.0224 1.07227H0.179461L0 2.35883C1.18442 2.68047 1.93813 3.32376 2.36883 4.28868C2.83541 5.36082 3.05077 6.46869 3.05077 7.64805V46.7811C3.05077 47.9604 2.83541 49.0683 2.40472 50.1405C2.00991 51.1053 1.2562 51.7128 0.0358922 52.0344L0.215353 53.3211H19.9197C23.5447 53.3211 26.9544 52.6422 30.0769 51.2484C33.1993 49.8903 35.9272 47.9961 38.2242 45.6018C40.5212 43.2429 42.3158 40.4196 43.6081 37.2747C44.9001 34.1298 45.5461 30.7347 45.5461 27.161C45.5461 23.5872 44.8282 20.192 43.3926 17.0114C41.9927 13.8307 40.0547 11.0431 37.6858 8.72019V8.68446ZM36.9322 17.2258C38.0448 20.1563 38.6192 23.5157 38.6192 27.1252C38.6192 30.7347 38.0448 34.0941 36.8962 36.9888C35.7837 39.8835 34.1327 42.4209 32.0868 44.4582C30.0051 46.5309 27.4927 48.1392 24.5856 49.2471C21.6425 50.3907 18.3046 50.9625 14.6795 50.9625H9.33174V3.18081H14.6795C18.3405 3.18081 21.6784 3.75261 24.6215 4.89621C27.5645 6.03984 30.1128 7.64805 32.1587 9.68511C34.2403 11.7579 35.8197 14.2595 36.9322 17.1901V17.2258Z" fill="#C8B46E"/>
<path d="M95.1466 8.50542C92.7777 6.14673 89.9422 4.25262 86.7121 2.85884C83.5177 1.5008 80.0362 0.821777 76.4113 0.821777C72.7863 0.821777 69.3048 1.5008 66.1104 2.85884C62.9163 4.21689 60.0808 6.11097 57.6759 8.50542C55.307 10.8641 53.4049 13.6874 52.005 16.9038C50.6414 20.0845 49.9594 23.5511 49.9594 27.1606C49.9594 30.7701 50.6414 34.2366 52.005 37.4175C53.369 40.5981 55.2714 43.4214 57.6759 45.8157C60.0448 48.1746 62.8803 50.0685 66.1104 51.4266C69.3048 52.7847 72.7863 53.4636 76.4113 53.4636C80.0362 53.4636 83.5177 52.7847 86.7121 51.4266C89.9062 50.0685 92.7417 48.1746 95.1466 45.8157C97.5512 43.4571 99.4176 40.6338 100.817 37.4175C102.181 34.2366 102.863 30.7701 102.863 27.1606C102.863 23.5511 102.181 20.0845 100.817 16.9038C99.4535 13.7232 97.5512 10.8999 95.1466 8.50542ZM77.8112 51.4266C74.6883 51.4266 71.8172 50.6403 69.3048 49.1037C66.7564 47.5311 64.5313 45.4941 62.7368 43.0281C60.9063 40.5624 59.5064 37.7748 58.5374 34.737C57.5684 31.6992 57.0659 28.7331 57.0659 25.9098C57.0659 23.3009 57.4608 20.6206 58.2863 17.9045C59.0758 15.1884 60.2959 12.6868 61.8394 10.471C63.3828 8.25528 65.3208 6.43263 67.5819 5.0031C69.8432 3.60933 72.4273 2.93032 75.2987 2.93032C78.4572 2.93032 81.3642 3.71655 83.9126 5.25327C86.4607 6.78999 88.6861 8.82705 90.4806 11.2572C92.2752 13.7232 93.6751 16.475 94.6081 19.5127C95.5412 22.5504 96.0437 25.5167 96.0437 28.4114C96.0437 31.0203 95.6491 33.7008 94.8236 36.4524C94.034 39.1686 92.8136 41.706 91.2702 43.9218C89.7271 46.1373 87.7887 47.9601 85.5277 49.3896C83.3023 50.7834 80.6823 51.4623 77.7752 51.4623L77.8112 51.4266Z" fill="#C8B46E"/>
<path d="M148.159 49.9974C147.692 48.9609 147.477 47.8173 147.477 46.638V7.50495C147.477 6.28986 147.692 5.18199 148.123 4.21707C148.518 3.32361 149.307 2.71606 150.528 2.32294L150.348 1.03638H138.36L138.181 2.32294C139.401 2.71606 140.191 3.32361 140.586 4.21707C141.016 5.18199 141.232 6.32559 141.232 7.54068V25.5169H116.754V7.54068C116.754 6.32559 116.969 5.21772 117.4 4.2528C117.795 3.35934 118.584 2.75181 119.805 2.35869L119.625 1.07212H107.637L107.458 2.35869C108.678 2.75181 109.468 3.35934 109.863 4.2528C110.293 5.21772 110.509 6.36132 110.509 7.57641V46.8525C110.509 48.1032 110.293 49.2468 109.863 50.1759C109.468 51.0336 108.678 51.6414 107.458 52.0344L107.637 53.3211H119.625L119.84 52.0701C118.692 51.6771 117.938 51.0696 117.472 50.1045C117.005 49.104 116.754 47.9961 116.754 46.8525V27.6611H141.232V46.7094C141.232 47.9244 141.016 49.0683 140.586 50.1045C140.191 51.0336 139.401 51.6771 138.181 52.0701L138.36 53.3568H150.348L150.563 52.0701C149.379 51.6771 148.589 51.0336 148.195 50.1045L148.159 49.9974Z" fill="#C8B46E"/>
<path d="M197.222 49.9614C196.468 48.8892 195.858 47.817 195.427 46.7094L177.984 0.821777H176.764L159.105 46.8522C158.71 47.853 157.992 48.8892 157.023 49.9257C156.09 50.9622 155.085 51.6411 154.08 51.9984L154.295 53.2494H164.955L165.171 51.9984C164.13 51.6411 163.232 51.1407 162.515 50.4618C161.833 49.8543 161.51 49.0323 161.51 47.9601C161.51 47.4954 161.581 46.9953 161.689 46.5306C161.797 46.0659 161.94 45.6015 162.156 45.1368L166.75 33.2718H183.762C184.05 33.9507 184.444 34.9158 184.947 36.1665C185.557 37.7034 186.203 39.2757 186.849 40.9554C187.495 42.5994 188.069 44.172 188.536 45.6015C189.11 47.3169 189.218 48.0672 189.218 48.3888C189.218 49.1394 188.967 49.8543 188.5 50.5689C188.033 51.2838 187.459 51.7482 186.741 51.9984L186.957 53.2494H199.806L199.985 51.9627C198.837 51.6054 197.939 50.9622 197.222 49.9614ZM175.184 10.9356L182.793 31.1274H167.432L175.184 10.9356Z" fill="#C8B46E"/>
<path d="M268.432 45.7443C270.98 43.2069 272.954 40.2765 274.247 37.0599C275.539 33.8436 276.221 30.5199 276.221 27.1606C276.221 23.8013 275.575 20.4776 274.247 17.2612C272.954 14.0448 270.98 11.1143 268.432 8.57691C265.884 6.03951 262.941 4.07394 259.711 2.78736C256.48 1.50079 253.143 0.821777 249.769 0.821777C246.395 0.821777 243.057 1.46506 239.827 2.78736C236.597 4.07394 233.654 6.03951 231.105 8.57691C228.557 11.1143 226.583 14.0448 225.291 17.2612C223.999 20.4776 223.317 23.8013 223.317 27.1606C223.317 30.5199 223.963 33.8436 225.291 37.0599C226.583 40.2765 228.557 43.2069 231.105 45.7443C233.654 48.2817 236.597 50.2473 239.827 51.534C243.057 52.8204 246.395 53.4996 249.769 53.4996C253.143 53.4996 256.48 52.8561 259.711 51.534C262.941 50.2473 265.884 48.2817 268.432 45.7443ZM233.474 45.2796C231.249 43.0641 229.813 40.5267 229.131 37.6317C228.449 34.737 228.342 31.7352 228.808 28.6973C229.275 25.6596 230.244 22.6934 231.716 19.8701C233.187 17.0468 234.946 14.6166 236.956 12.6153C238.786 10.7926 241.011 9.14871 243.488 7.8264C245.964 6.46836 248.62 5.53917 251.312 5.07459C253.968 4.60998 256.66 4.64574 259.244 5.28903C261.828 5.89656 264.161 7.21887 266.171 9.25593C268.432 11.5074 269.904 14.0805 270.622 16.9396C271.339 19.8344 271.447 22.8363 270.98 25.8026C270.514 28.8046 269.509 31.7352 268.037 34.5585C266.566 37.3818 264.771 39.8118 262.726 41.8488C260.895 43.6716 258.67 45.3156 256.158 46.6734C253.645 48.0315 251.025 48.9609 248.333 49.461C245.677 49.9257 242.985 49.89 240.401 49.2825C237.853 48.7107 235.52 47.3526 233.438 45.2796H233.474Z" fill="#C8B46E"/>
<path d="M315.915 49.9614C315.163 48.8892 314.553 47.817 314.121 46.7094L296.678 0.821777H295.458L277.799 46.8522C277.405 47.853 276.687 48.8892 275.718 49.9257C274.784 50.9622 273.78 51.6411 272.775 51.9984L272.99 53.2494H283.65L283.865 51.9984C282.824 51.6411 281.927 51.1407 281.209 50.4618C280.527 49.8543 280.204 49.0323 280.204 47.9601C280.204 47.4954 280.276 46.9953 280.383 46.5306C280.491 46.0659 280.635 45.6015 280.85 45.1368L285.444 33.2718H302.457C302.744 33.9507 303.137 34.9158 303.642 36.1665C304.252 37.7034 304.896 39.2757 305.542 40.9554C306.189 42.5994 306.763 44.172 307.231 45.6015C307.806 47.3169 307.911 48.0672 307.911 48.3888C307.911 49.1394 307.661 49.8543 307.195 50.5689C306.727 51.2838 306.153 51.7482 305.437 51.9984L305.651 53.2494H318.499L318.68 51.9627C317.532 51.6054 316.635 50.9622 315.915 49.9614ZM293.843 10.9356L301.452 31.1274H286.09L293.843 10.9356Z" fill="#C8B46E"/>
<path d="M354.033 29.8412C352.634 28.5546 351.017 27.3752 349.222 26.3746C347.464 25.3739 345.636 24.409 343.768 23.5155C341.901 22.6221 340.106 21.7287 338.384 20.8709C336.662 20.0132 335.154 19.0841 333.827 18.0476C332.534 17.047 331.458 15.9391 330.634 14.7598C329.842 13.6161 329.449 12.2581 329.449 10.6856C329.449 9.22038 329.769 7.9338 330.38 6.86166C331.026 5.78955 331.851 4.86036 332.857 4.14561C333.897 3.43083 335.081 2.85903 336.375 2.53739C339.39 1.75115 342.548 1.85836 345.454 2.89476C347.071 3.46656 348.579 4.28853 349.905 5.32494C351.235 6.36135 352.419 7.61217 353.422 9.00597C354.429 10.3997 355.145 11.9365 355.613 13.6161L356.903 13.4732C356.939 11.4719 357.012 9.43482 357.121 7.50495C357.227 5.53938 357.299 3.50232 357.335 1.50099L356.042 1.28657C355.828 1.96559 355.468 2.57313 354.966 3.1092C354.534 3.57378 353.996 3.82395 353.28 3.82395C353.03 3.82395 352.489 3.71673 351.558 3.28788C350.694 2.85903 349.691 2.43018 348.579 1.96558C347.431 1.50099 346.21 1.07214 344.917 0.643284C343.554 0.214429 342.119 0 340.68 0C338.635 0 336.625 0.285896 334.725 0.857703C332.785 1.42951 331.099 2.32296 329.627 3.43083C328.156 4.57446 326.971 6.00396 326.074 7.71939C325.213 9.43482 324.745 11.4362 324.745 13.7234C324.745 16.7254 325.5 19.2627 327.044 21.2283C328.515 23.1582 330.416 24.8736 332.643 26.3388C334.867 27.7684 337.236 29.0192 339.783 30.1272C342.261 31.1991 344.593 32.3427 346.784 33.5223C348.902 34.6659 350.694 35.988 352.06 37.4175C353.386 38.7756 354.033 40.4553 354.033 42.528C354.033 44.172 353.64 45.6015 352.885 46.7451C352.132 47.9244 351.126 48.8538 349.941 49.5684C348.721 50.2833 347.322 50.8194 345.814 51.141C344.27 51.4626 342.762 51.6414 341.254 51.6414C339.245 51.6414 337.381 51.2481 335.655 50.4618C333.897 49.6758 332.32 48.6036 330.921 47.3169C329.519 45.9948 328.265 44.4936 327.222 42.8139C326.183 41.0985 325.355 39.3474 324.711 37.5606L323.454 37.7751V52.3203L324.675 52.6776C324.998 52.1415 325.464 51.7128 326.001 51.3555C326.539 51.0336 327.113 50.8551 327.76 50.8551C328.802 50.8551 329.878 50.9979 330.921 51.3198C331.996 51.6414 333.108 51.9987 334.22 52.3917C335.368 52.8207 336.553 53.178 337.737 53.4996C338.958 53.8212 340.215 54 341.472 54C343.409 54 345.418 53.7498 347.431 53.2137C349.476 52.6776 351.34 51.8916 352.993 50.8194C354.679 49.7472 356.078 48.3177 357.121 46.6023C358.196 44.8869 358.771 42.8499 358.771 40.5624C358.771 38.2752 358.305 36.2382 357.408 34.5228C356.51 32.8074 355.362 31.2708 353.96 29.9841L354.033 29.8412Z" fill="#C8B46E"/>
<path d="M374.202 49.9974C373.773 48.9609 373.522 47.8173 373.522 46.638V7.50495C373.522 6.28986 373.737 5.18199 374.166 4.21707C374.562 3.32361 375.35 2.71606 376.571 2.32295L376.393 1.03638H364.403L364.225 2.32295C365.445 2.71606 366.234 3.32361 366.63 4.21707C367.059 5.18199 367.276 6.32559 367.276 7.54068V46.6737C367.276 47.8887 367.059 49.0323 366.63 50.0688C366.234 50.9979 365.445 51.6414 364.225 52.0344L364.403 53.3211H376.393L376.607 52.0344C375.423 51.6414 374.634 50.9979 374.238 50.0688L374.202 49.9974Z" fill="#C8B46E"/>
<path d="M418.707 34.38C417.809 32.6646 416.661 31.1277 415.262 29.8412C413.863 28.5546 412.247 27.3752 410.452 26.3746C408.693 25.3739 406.862 24.409 404.998 23.5155C403.131 22.6221 401.336 21.7287 399.613 20.8709C397.891 20.0132 396.383 19.0841 395.054 18.0476C393.764 17.047 392.685 15.9391 391.86 14.7598C391.071 13.6161 390.676 12.2581 390.676 10.6856C390.676 9.22038 390.999 7.9338 391.609 6.86166C392.256 5.78955 393.081 4.86036 394.087 4.14561C395.126 3.43083 396.311 2.85903 397.604 2.53739C400.617 1.75115 403.777 1.85836 406.684 2.89476C408.297 3.46656 409.805 4.28853 411.135 5.32494C412.461 6.36135 413.646 7.61217 414.652 9.00597C415.658 10.3997 416.374 11.9365 416.839 13.6161L418.133 13.4732C418.169 11.4719 418.241 9.43482 418.347 7.50495C418.456 5.53938 418.529 3.50232 418.565 1.50099L417.272 1.28657C417.057 1.96559 416.697 2.57313 416.196 3.1092C415.764 3.57378 415.226 3.82395 414.507 3.82395C414.256 3.82395 413.718 3.71673 412.785 3.28788C411.923 2.85903 410.92 2.43018 409.805 1.96558C408.657 1.50099 407.436 1.07214 406.146 0.643284C404.78 0.214429 403.345 0 401.91 0C399.864 0 397.855 0.285896 395.951 0.857703C394.014 1.42951 392.328 2.32296 390.857 3.43083C389.385 4.57446 388.201 6.00396 387.304 7.71939C386.442 9.43482 385.974 11.4362 385.974 13.7234C385.974 16.7254 386.729 19.2627 388.27 21.2283C389.742 23.1582 391.646 24.8736 393.869 26.3388C396.096 27.7684 398.465 29.0192 401.012 30.1272C403.49 31.1991 405.823 32.3427 408.01 33.5223C410.129 34.6659 411.923 35.988 413.289 37.4175C414.616 38.7756 415.262 40.4553 415.262 42.528C415.262 44.172 414.866 45.6015 414.114 46.7451C413.359 47.9244 412.355 48.8538 411.171 49.5684C409.95 50.2833 408.551 50.8194 407.044 51.141C405.499 51.4626 403.992 51.6414 402.484 51.6414C400.475 51.6414 398.607 51.2481 396.885 50.4618C395.126 49.6758 393.546 48.6036 392.147 47.3169C390.748 45.9948 389.491 44.4936 388.452 42.8139C387.409 41.0985 386.584 39.3474 385.938 37.5606L384.684 37.7751V52.3203L385.901 52.6776C386.225 52.1415 386.693 51.7128 387.231 51.3555C387.769 51.0336 388.343 50.8551 388.99 50.8551C390.029 50.8551 391.108 50.9979 392.147 51.3198C393.226 51.6414 394.338 51.9987 395.45 52.3917C396.598 52.8207 397.782 53.178 398.967 53.4996C400.188 53.8212 401.445 54 402.698 54C404.638 54 406.648 53.7498 408.657 53.2137C410.703 52.6776 412.57 51.8916 414.22 50.8194C415.909 49.7472 417.308 48.3177 418.347 46.6023C419.426 44.8869 420 42.8499 420 40.5624C420 38.2752 419.532 36.2382 418.634 34.5228L418.707 34.38Z" fill="#C8B46E"/>
</g>
<defs>
<clipPath id="clip0_16_17">
<rect width="420" height="54" fill="white"/>
</clipPath>
</defs>
</svg>
